<?xml version="1.0" encoding="utf-8"?>
<svg viewBox="291.881 131.262 145.078 335.06" width="145.078" height="335.06" xmlns="http://www.w3.org/2000/svg" xmlns:bx="https://boxy-svg.com">
  <g transform="matrix(0.44735, 0, 0, 0.60772, 74.996971, 50.198097)" style="">
    <g id="Layer_6">
      <path fill="#498a0c" fill-rule="evenodd" stroke="none" d="M 663.736 147.743 C 664.593 149.083 665.092 150.976 665.673 152.362 C 665.674 152.361 672.207 150.563 675.198 150.097 C 677.039 149.81 679.583 149.546 681.494 149.554 C 683.015 149.56 685.135 149.63 686.499 150.007 C 688.128 150.457 690.12 151.431 690.858 152.362 C 691.94 153.727 691.051 155.852 690.858 157.343 C 690.62 159.178 689.975 161.617 689.243 163.411 C 687.903 166.694 684.949 170.892 683.108 174.098 C 683.109 174.098 688.068 173.61 690.212 173.645 C 692.225 173.678 694.943 173.885 696.831 174.279 C 698.092 174.542 699.994 174.906 700.705 175.547 C 702.267 176.954 701.308 179.47 700.544 181.072 C 698.914 184.49 693.027 188.172 689.632 191.154 C 687.901 192.675 685.469 194.658 683.684 196.16 C 683.685 196.16 690.793 196.842 693.35 197.744 C 695.06 198.348 696.923 199.525 697.96 200.498 C 698.568 201.068 699.363 201.919 699.298 202.583 C 699.178 203.814 697.14 205.226 695.729 206.171 C 693.824 207.447 690.326 208.599 687.999 209.632 C 684.307 211.272 678.95 213.183 675.651 215.067 C 671.857 217.234 667.631 220.57 664.822 223.167 C 662.587 225.233 660.015 228.141 658.553 230.414 C 657.357 232.274 656.251 234.856 655.703 236.809 C 654.534 240.98 654.772 246.648 654.373 250.865 C 654.374 250.864 660.879 246.587 663.875 244.862 C 666.602 243.292 670.427 241.303 673.378 239.867 C 675.075 239.041 677.628 238.126 679.199 237.225 C 681.462 235.929 684.165 234.002 685.726 232.414 C 687.803 230.301 689.041 227.098 690.626 224.855 C 692.121 222.739 693.968 219.866 695.963 217.885 C 697.805 216.057 700.462 213.608 703.225 212.191 C 704.349 211.615 706.106 210.996 707.512 210.67 C 708.722 210.389 710.479 209.988 711.766 210.122 C 713.178 210.269 714.684 211.079 715.713 211.64 C 716.855 212.263 718.085 213.261 718.819 214.054 C 719.654 214.957 720.529 216.256 720.77 217.264 C 722.589 216.712 723.864 215.64 725.117 215.024 C 726.997 214.1 729.64 212.94 731.793 212.228 C 733.436 211.684 735.737 211.031 737.573 210.74 C 739.353 210.458 741.846 210.258 743.693 210.321 C 745.179 210.371 747.206 210.576 748.521 210.969 C 750.024 211.419 751.644 212.38 752.669 213.143 C 753.58 213.822 754.287 214.906 754.981 215.661 C 754.982 215.661 759.628 214.006 761.831 213.558 C 764.57 213.002 768.459 212.56 771.372 212.547 C 772.626 212.542 774.325 212.652 775.508 212.885 C 777.236 213.225 779.525 213.885 780.724 214.661 C 781.741 215.32 782.504 216.466 782.807 217.32 C 783.139 218.257 782.865 219.555 782.663 220.504 C 782.584 220.87 782.361 221.35 782.232 221.712 C 782.232 221.713 785.948 222.32 787.475 222.679 C 789.693 223.2 792.676 223.939 794.579 224.763 C 796.369 225.539 798.454 226.815 799.658 227.889 C 800.397 228.548 801.444 229.5 801.461 230.278 C 801.486 231.451 799.824 232.883 798.675 233.863 C 797.548 234.825 795.607 235.947 794.006 236.667 C 792.387 237.394 789.952 238.176 788.043 238.632 C 786.391 239.027 784.014 239.277 782.287 239.555 C 782.288 239.555 785.863 242.19 786.773 243.497 C 787.478 244.51 788.499 246.014 787.969 247.061 C 787.336 248.311 784.695 249.585 782.661 250.207 C 780.638 250.826 777.408 250.897 775.111 251.003 C 771.98 251.148 767.769 251.021 764.645 250.836 C 760.879 250.612 755.959 249.926 752.236 249.535 C 752.236 249.536 752.818 250.818 752.909 251.381 C 753.053 252.275 753.217 253.514 752.741 254.371 C 752.255 255.248 751.162 256.45 749.781 256.943 C 748.222 257.499 745.511 257.454 743.669 257.371 C 740.706 257.239 736.924 256.396 734.214 255.711 C 730.815 254.85 726.794 253.16 723.614 252.068 C 723.614 252.068 723.027 254.22 722.372 255.067 C 721.659 255.992 720.514 257.287 719.03 257.854 C 717.789 258.328 715.652 258.582 714.159 258.497 C 711.597 258.35 708.612 257.142 706.519 256.3 C 704.925 255.659 703.132 254.571 701.794 253.767 C 699.19 252.201 696.153 249.901 693.735 248.244 C 693.735 248.244 690.87 247.956 689.63 247.966 C 688.477 247.976 686.946 248.126 685.829 248.287 C 683.852 248.57 681.186 249.026 679.471 249.647 C 676.564 250.699 673.342 252.675 671.479 254.31 C 669.181 256.327 667.603 259.468 666.428 261.77 C 665.278 264.025 664.236 267.114 663.729 269.442 C 663.08 272.42 662.954 276.432 662.934 279.433 C 662.923 280.946 663.134 282.961 663.221 284.474 C 663.219 284.474 651.619 284.552 646.647 284.586 C 646.647 284.571 646.367 181.635 646.247 137.513 C 646.247 137.513 647.073 137.504 647.428 137.5 C 649.422 137.586 651.935 138.308 653.565 138.957 C 655.523 139.737 657.536 141.197 658.892 142.309 C 660.727 143.813 662.638 146.027 663.736 147.743 M 647.428 137.5 C 647.428 137.5 647.428 137.5 647.428 137.5 M 720.77 217.364 C 720.883 217.418 721.091 217.286 721.214 217.239 C 720.777 217.294 720.73 217.344 720.77 217.364 Z" style=""/>
      <path fill="none" stroke="#498a0c" stroke-width="1" stroke-linecap="round" stroke-linejoin="round" d="M 665.673 152.362 C 665.673 152.362 665.673 152.362 665.673 152.362 C 665.092 150.976 664.593 149.083 663.736 147.743 C 662.638 146.027 660.727 143.813 658.892 142.309 C 657.536 141.197 655.523 139.737 653.565 138.957 C 651.935 138.308 649.422 137.586 647.428 137.5 C 647.428 137.5 647.428 137.5 647.428 137.5 C 647.073 137.504 646.247 137.513 646.247 137.513 C 646.247 137.513 646.247 137.513 646.247 137.513 C 646.367 181.635 646.647 284.571 646.647 284.586 C 646.647 284.586 646.647 284.586 646.647 284.586 C 651.619 284.552 663.219 284.474 663.221 284.474 C 663.221 284.474 663.221 284.474 663.221 284.474 C 663.134 282.961 662.923 280.946 662.934 279.433 C 662.954 276.432 663.08 272.42 663.729 269.442 C 664.236 267.114 665.278 264.025 666.428 261.77 C 667.603 259.468 669.181 256.327 671.479 254.31 C 673.342 252.675 676.564 250.699 679.471 249.647 C 681.186 249.026 683.852 248.57 685.829 248.287 C 686.946 248.126 688.477 247.976 689.63 247.966 C 690.87 247.956 693.735 248.244 693.735 248.244 C 693.735 248.244 693.735 248.244 693.735 248.244 C 696.153 249.901 699.19 252.201 701.794 253.767 C 703.132 254.571 704.925 255.659 706.519 256.3 C 708.612 257.142 711.597 258.35 714.159 258.497 C 715.652 258.582 717.789 258.328 719.03 257.854 C 720.514 257.287 721.659 255.992 722.372 255.067 C 723.027 254.22 723.614 252.068 723.614 252.068 C 723.614 252.068 723.614 252.068 723.614 252.068 C 726.794 253.16 730.815 254.85 734.214 255.711 C 736.924 256.396 740.706 257.239 743.669 257.371 C 745.511 257.454 748.222 257.499 749.781 256.943 C 751.162 256.45 752.255 255.248 752.741 254.371 C 753.217 253.514 753.053 252.275 752.909 251.381 C 752.818 250.818 752.236 249.536 752.236 249.535 C 752.236 249.535 752.236 249.535 752.236 249.535 C 755.959 249.926 760.879 250.612 764.645 250.836 C 767.769 251.021 771.98 251.148 775.111 251.003 C 777.408 250.897 780.638 250.826 782.661 250.207 C 784.695 249.585 787.336 248.311 787.969 247.061 C 788.499 246.014 787.478 244.51 786.773 243.497 C 785.863 242.19 782.288 239.555 782.287 239.555 C 782.287 239.555 782.287 239.555 782.287 239.555 C 784.014 239.277 786.391 239.027 788.043 238.632 C 789.952 238.176 792.387 237.394 794.006 236.667 C 795.607 235.947 797.548 234.825 798.675 233.863 C 799.824 232.883 801.486 231.451 801.461 230.278 C 801.444 229.5 800.397 228.548 799.658 227.889 C 798.454 226.815 796.369 225.539 794.579 224.763 C 792.676 223.939 789.693 223.2 787.475 222.679 C 785.948 222.32 782.232 221.713 782.232 221.712 C 782.232 221.712 782.232 221.712 782.232 221.712 C 782.361 221.35 782.584 220.87 782.663 220.504 C 782.865 219.555 783.139 218.257 782.807 217.32 C 782.504 216.466 781.741 215.32 780.724 214.661 C 779.525 213.885 777.236 213.225 775.508 212.885 C 774.325 212.652 772.626 212.542 771.372 212.547 C 768.459 212.56 764.57 213.002 761.831 213.558 C 759.628 214.006 754.982 215.661 754.981 215.661 C 754.981 215.661 754.981 215.661 754.981 215.661 C 754.287 214.906 753.58 213.822 752.669 213.143 C 751.644 212.38 750.024 211.419 748.521 210.969 C 747.206 210.576 745.179 210.371 743.693 210.321 C 741.846 210.258 739.353 210.458 737.573 210.74 C 735.737 211.031 733.436 211.684 731.793 212.228 C 729.64 212.94 726.997 214.1 725.117 215.024 C 723.864 215.64 722.589 216.712 721.214 217.239 C 721.091 217.286 720.883 217.418 720.77 217.364 C 720.777 217.294 720.73 217.344 720.77 217.364 C 720.529 216.256 719.654 214.957 718.819 214.054 C 718.085 213.261 716.855 212.263 715.713 211.64 C 714.684 211.079 713.178 210.269 711.766 210.122 C 710.479 209.988 708.722 210.389 707.512 210.67 C 706.106 210.996 704.349 211.615 703.225 212.191 C 700.462 213.608 697.805 216.057 695.963 217.885 C 693.968 219.866 692.121 222.739 690.626 224.855 C 689.041 227.098 687.803 230.301 685.726 232.414 C 684.165 234.002 681.462 235.929 679.199 237.225 C 677.628 238.126 675.075 239.041 673.378 239.867 C 670.427 241.303 666.602 243.292 663.875 244.862 C 660.879 246.587 654.374 250.864 654.373 250.865 C 654.373 250.865 654.373 250.865 654.373 250.865 C 654.772 246.648 654.534 240.98 655.703 236.809 C 656.251 234.856 657.357 232.274 658.553 230.414 C 660.015 228.141 662.587 225.233 664.822 223.167 C 667.631 220.57 671.857 217.234 675.651 215.067 C 678.95 213.183 684.307 211.272 687.999 209.632 C 690.326 208.599 693.824 207.447 695.729 206.171 C 697.14 205.226 699.178 203.814 699.298 202.583 C 699.363 201.919 698.568 201.068 697.96 200.498 C 696.923 199.525 695.06 198.348 693.35 197.744 C 690.793 196.842 683.685 196.16 683.684 196.16 C 683.684 196.16 683.684 196.16 683.684 196.16 C 685.469 194.658 687.901 192.675 689.632 191.154 C 693.027 188.172 698.914 184.49 700.544 181.072 C 701.308 179.47 702.267 176.954 700.705 175.547 C 699.994 174.906 698.092 174.542 696.831 174.279 C 694.943 173.885 692.225 173.678 690.212 173.645 C 688.068 173.61 683.109 174.098 683.108 174.098 C 683.108 174.098 683.108 174.098 683.108 174.098 C 684.949 170.892 687.903 166.694 689.243 163.411 C 689.975 161.617 690.62 159.178 690.858 157.343 C 691.051 155.852 691.94 153.727 690.858 152.362 C 690.12 151.431 688.128 150.457 686.499 150.007 C 685.135 149.63 683.015 149.56 681.494 149.554 C 679.583 149.546 677.039 149.81 675.198 150.097 C 672.207 150.563 665.674 152.361 665.673 152.362" style=""/>
      <path fill="#75aa00" fill-rule="evenodd" stroke="none" d="M 629.05 146.42 C 628.206 147.775 627.717 149.685 627.146 151.084 C 627.145 151.084 620.725 149.268 617.78 148.798 C 615.971 148.509 613.469 148.242 611.589 148.249 C 610.093 148.256 608.007 148.328 606.668 148.707 C 605.058 149.162 603.106 150.151 602.382 151.084 C 601.31 152.465 602.192 154.609 602.382 156.114 C 602.616 157.966 603.249 160.428 603.97 162.241 C 605.287 165.553 608.192 169.793 610.002 173.03 C 610.001 173.03 605.126 172.538 603.017 172.573 C 601.036 172.606 598.363 172.817 596.509 173.213 C 595.265 173.479 593.398 173.853 592.699 174.493 C 591.146 175.917 592.105 178.453 592.858 180.072 C 594.46 183.511 600.249 187.239 603.587 190.252 C 605.289 191.787 607.681 193.79 609.436 195.305 C 609.435 195.305 602.439 196 599.931 196.905 C 598.242 197.516 596.416 198.707 595.399 199.685 C 594.798 200.263 594.019 201.122 594.083 201.791 C 594.202 203.028 596.2 204.457 597.592 205.413 C 599.461 206.697 602.905 207.865 605.193 208.908 C 608.823 210.563 614.096 212.497 617.334 214.395 C 621.074 216.588 625.224 219.956 627.982 222.574 C 630.183 224.662 632.71 227.599 634.146 229.891 C 635.324 231.771 636.41 234.376 636.948 236.347 C 638.099 240.56 637.864 246.282 638.257 250.539 C 638.256 250.539 631.862 246.221 628.913 244.478 C 626.234 242.894 622.473 240.886 619.569 239.435 C 617.902 238.602 615.388 237.675 613.846 236.768 C 611.616 235.457 608.961 233.51 607.428 231.91 C 605.38 229.773 604.169 226.543 602.61 224.278 C 601.141 222.143 599.328 219.244 597.362 217.24 C 595.554 215.397 592.951 212.926 590.222 211.492 C 589.12 210.912 587.393 210.285 586.007 209.956 C 584.819 209.673 583.09 209.268 581.824 209.403 C 580.429 209.551 578.952 210.37 577.942 210.936 C 576.817 211.565 575.609 212.574 574.889 213.372 C 574.065 214.286 573.207 215.597 572.971 216.613 C 571.177 216.055 569.93 214.974 568.696 214.352 C 566.85 213.421 564.253 212.249 562.133 211.529 C 560.519 210.981 558.258 210.321 556.449 210.027 C 554.701 209.742 552.247 209.54 550.431 209.603 C 548.969 209.654 546.974 209.863 545.684 210.258 C 544.2 210.712 542.611 211.685 541.606 212.453 C 540.707 213.14 540.014 214.233 539.332 214.995 C 539.331 214.995 534.767 213.324 532.596 212.872 C 529.907 212.312 526.081 211.865 523.215 211.852 C 521.982 211.846 520.31 211.957 519.148 212.192 C 517.445 212.536 515.196 213.208 514.02 213.986 C 513.013 214.652 512.27 215.81 511.972 216.671 C 511.644 217.617 511.915 218.927 512.113 219.884 C 512.19 220.255 512.41 220.739 512.537 221.105 C 512.537 221.105 508.882 221.719 507.382 222.081 C 505.198 222.608 502.264 223.356 500.396 224.185 C 498.631 224.97 496.584 226.26 495.403 227.341 C 494.674 228.008 493.646 228.97 493.63 229.754 C 493.606 230.935 495.236 232.381 496.369 233.373 C 497.475 234.341 499.381 235.475 500.96 236.204 C 502.549 236.936 504.943 237.727 506.823 238.188 C 508.446 238.586 510.785 238.84 512.483 239.12 C 512.482 239.12 508.966 241.784 508.073 243.1 C 507.377 244.124 506.37 245.642 506.896 246.699 C 507.52 247.951 510.103 249.245 512.115 249.875 C 514.1 250.495 517.279 250.572 519.539 250.679 C 522.617 250.825 526.759 250.696 529.83 250.51 C 533.534 250.284 538.37 249.591 542.031 249.197 C 542.031 249.197 541.459 250.492 541.37 251.06 C 541.227 251.963 541.065 253.213 541.534 254.079 C 542.012 254.962 543.074 256.177 544.445 256.676 C 545.974 257.232 548.643 257.191 550.455 257.108 C 553.372 256.975 557.091 256.122 559.751 255.432 C 563.1 254.562 567.047 252.857 570.174 251.754 C 570.175 251.754 570.75 253.925 571.395 254.782 C 572.096 255.713 573.21 257.022 574.682 257.596 C 575.898 258.07 578.001 258.331 579.471 258.245 C 581.999 258.096 584.93 256.875 586.983 256.027 C 588.554 255.379 590.315 254.28 591.629 253.469 C 594.193 251.887 597.176 249.565 599.553 247.893 C 599.553 247.893 602.37 247.602 603.589 247.612 C 604.723 247.623 606.229 247.774 607.326 247.936 C 609.273 248.223 611.896 248.685 613.579 249.309 C 616.449 250.375 619.609 252.373 621.436 254.017 C 623.705 256.059 625.249 259.227 626.403 261.549 C 627.535 263.828 628.559 266.945 629.057 269.296 C 629.695 272.304 629.819 276.354 629.839 279.383 C 629.849 280.911 629.642 282.946 629.557 284.473 C 629.559 284.473 640.964 284.552 645.853 284.586 C 645.853 284.571 646.129 180.641 646.247 136.092 C 646.247 136.092 645.434 136.083 645.086 136.079 C 643.12 136.171 640.65 136.898 639.051 137.55 C 637.117 138.34 635.144 139.814 633.813 140.934 C 632.004 142.456 630.128 144.691 629.05 146.42 M 645.086 136.079 C 645.086 136.079 645.086 136.079 645.086 136.079 M 572.971 216.714 C 572.858 216.767 572.655 216.636 572.534 216.589 C 572.964 216.643 573.011 216.694 572.971 216.714 Z" style=""/>
      <path fill="none" stroke="#75aa00" stroke-width="1" stroke-linecap="round" stroke-linejoin="round" d="M 627.146 152.43 C 627.146 152.43 627.146 152.43 627.146 152.43 C 627.717 151.043 628.206 149.152 629.05 147.809 C 630.128 146.097 632.004 143.882 633.813 142.375 C 635.144 141.266 637.117 139.804 639.051 139.023 C 640.65 138.378 643.12 137.658 645.086 137.566 C 645.086 137.566 645.086 137.566 645.086 137.566 C 645.434 137.57 646.247 137.579 646.247 137.579 C 646.247 137.579 646.247 137.579 646.247 137.579 C 646.129 181.707 645.853 284.657 645.853 284.673 C 645.853 284.673 645.853 284.673 645.853 284.673 C 640.964 284.638 629.559 284.558 629.557 284.558 C 629.557 284.558 629.557 284.558 629.557 284.558 C 629.642 283.048 629.849 281.031 629.839 279.518 C 629.819 276.518 629.695 272.506 629.057 269.526 C 628.559 267.198 627.535 264.111 626.403 261.852 C 625.249 259.552 623.705 256.414 621.436 254.392 C 619.609 252.762 616.449 250.784 613.579 249.728 C 611.896 249.111 609.273 248.652 607.326 248.368 C 606.229 248.208 604.723 248.057 603.589 248.046 C 602.37 248.035 599.553 248.325 599.553 248.325 C 599.553 248.325 599.553 248.325 599.553 248.325 C 597.176 249.982 594.193 252.28 591.629 253.849 C 590.315 254.651 588.554 255.74 586.983 256.382 C 584.93 257.221 581.999 258.433 579.471 258.58 C 578.001 258.664 575.898 258.406 574.682 257.936 C 573.21 257.368 572.096 256.072 571.395 255.149 C 570.75 254.301 570.175 252.148 570.174 252.148 C 570.174 252.148 570.174 252.148 570.174 252.148 C 567.047 253.241 563.1 254.933 559.751 255.794 C 557.091 256.478 553.372 257.322 550.455 257.454 C 548.643 257.537 545.974 257.577 544.445 257.026 C 543.074 256.531 542.012 255.327 541.534 254.453 C 541.065 253.595 541.227 252.356 541.37 251.462 C 541.459 250.9 542.031 249.617 542.031 249.616 C 542.031 249.616 542.031 249.616 542.031 249.616 C 538.37 250.006 533.534 250.695 529.83 250.918 C 526.759 251.102 522.617 251.229 519.539 251.085 C 517.279 250.98 514.1 250.904 512.115 250.288 C 510.103 249.664 507.52 248.384 506.896 247.141 C 506.37 246.095 507.377 244.593 508.073 243.576 C 508.966 242.274 512.482 239.635 512.483 239.635 C 512.483 239.635 512.483 239.635 512.483 239.635 C 510.785 239.358 508.446 239.106 506.823 238.711 C 504.943 238.255 502.549 237.471 500.96 236.746 C 499.381 236.024 497.475 234.901 496.369 233.943 C 495.236 232.959 493.606 231.527 493.63 230.357 C 493.646 229.581 494.674 228.628 495.403 227.969 C 496.584 226.897 498.631 225.619 500.396 224.84 C 502.264 224.019 505.198 223.278 507.382 222.757 C 508.882 222.397 512.537 221.791 512.537 221.788 C 512.537 221.788 512.537 221.788 512.537 221.788 C 512.41 221.428 512.19 220.948 512.113 220.58 C 511.915 219.633 511.644 218.335 511.972 217.398 C 512.27 216.546 513.013 215.399 514.02 214.739 C 515.196 213.966 517.445 213.301 519.148 212.96 C 520.31 212.729 521.982 212.618 523.215 212.624 C 526.081 212.636 529.907 213.079 532.596 213.635 C 534.767 214.083 539.331 215.737 539.332 215.737 C 539.332 215.737 539.332 215.737 539.332 215.737 C 540.014 214.982 540.707 213.899 541.606 213.221 C 542.611 212.458 544.2 211.496 545.684 211.046 C 546.974 210.653 548.969 210.447 550.431 210.397 C 552.247 210.333 554.701 210.535 556.449 210.814 C 558.258 211.108 560.519 211.761 562.133 212.304 C 564.253 213.017 566.85 214.178 568.696 215.101 C 569.93 215.717 571.177 216.787 572.534 217.316 C 572.655 217.364 572.858 217.493 572.971 217.441 C 572.964 217.371 573.011 217.421 572.971 217.441 C 573.207 216.334 574.065 215.035 574.889 214.13 C 575.609 213.339 576.817 212.34 577.942 211.717 C 578.952 211.158 580.429 210.344 581.824 210.198 C 583.09 210.064 584.819 210.465 586.007 210.746 C 587.393 211.073 589.12 211.694 590.222 212.267 C 592.951 213.687 595.554 216.135 597.362 217.962 C 599.328 219.945 601.141 222.818 602.61 224.932 C 604.169 227.177 605.38 230.376 607.428 232.494 C 608.961 234.077 611.616 236.006 613.846 237.304 C 615.388 238.204 617.902 239.122 619.569 239.948 C 622.473 241.385 626.234 243.373 628.913 244.942 C 631.862 246.67 638.256 250.945 638.257 250.947 C 638.257 250.947 638.257 250.947 638.257 250.947 C 637.864 246.73 638.099 241.061 636.948 236.89 C 636.41 234.936 635.324 232.355 634.146 230.493 C 632.71 228.222 630.183 225.313 627.982 223.246 C 625.224 220.651 621.074 217.316 617.334 215.144 C 614.096 213.262 608.823 211.347 605.193 209.708 C 602.905 208.674 599.461 207.519 597.592 206.245 C 596.2 205.299 594.202 203.883 594.083 202.656 C 594.019 201.995 594.798 201.145 595.399 200.571 C 596.416 199.604 598.242 198.422 599.931 197.818 C 602.439 196.922 609.435 196.232 609.436 196.232 C 609.436 196.232 609.436 196.232 609.436 196.232 C 607.681 194.732 605.289 192.748 603.587 191.229 C 600.249 188.244 594.46 184.549 592.858 181.143 C 592.105 179.54 591.146 177.03 592.699 175.618 C 593.398 174.983 595.265 174.613 596.509 174.351 C 598.363 173.957 601.036 173.747 603.017 173.716 C 605.126 173.682 610.001 174.169 610.002 174.169 C 610.002 174.169 610.002 174.169 610.002 174.169 C 608.192 170.963 605.287 166.761 603.97 163.48 C 603.249 161.685 602.616 159.246 602.382 157.411 C 602.192 155.92 601.31 153.798 602.382 152.43 C 603.106 151.505 605.058 150.525 606.668 150.072 C 608.007 149.698 610.093 149.627 611.589 149.621 C 613.469 149.615 615.971 149.878 617.78 150.164 C 620.725 150.63 627.145 152.429 627.146 152.43" bx:origin="0.5 1.282869"/>
      <path fill="#e86201" fill-rule="evenodd" stroke="none" d="M 641.595 681.601 C 639.032 680.265 636.899 676.761 634.887 674.687 C 634.888 674.648 643.189 399.070 646.747 280.948 C 651.399 280.988 657.612 280.772 662.254 281.080 C 666.739 281.377 672.716 282.041 677.123 282.925 C 682.726 284.047 690.408 285.425 695.451 288.111 C 699.871 290.465 704.991 295.026 708.246 298.831 C 711.749 302.926 715.324 309.302 717.472 314.245 C 719.328 318.514 720.898 324.577 721.827 329.138 C 722.561 332.749 722.981 337.661 723.307 341.332 C 723.834 347.254 724.377 355.178 724.361 361.124 C 724.347 366.219 723.850 373.006 723.395 378.081 C 722.167 391.772 719.440 409.911 717.523 423.523 C 715.227 439.825 712.098 461.559 709.228 477.770 C 703.367 510.871 694.465 554.827 686.721 587.538 C 682.102 607.046 676.127 633.179 669.555 652.118 C 667.670 657.549 665.016 664.801 662.209 669.818 C 660.821 672.300 658.706 675.499 656.765 677.577 C 655.369 679.071 653.378 681.095 651.502 681.911 C 650.181 682.486 648.195 682.665 646.755 682.634 C 645.177 682.600 642.995 682.331 641.595 681.601 M 646.747 280.948 C 646.747 280.948 646.747 280.948 646.747 280.948 Z"/>
      <path fill="none" stroke="#e86201" stroke-width="1" stroke-linecap="round" stroke-linejoin="round" d="M 634.887 674.687 C 634.887 674.687 634.887 674.687 634.887 674.687 C 636.899 676.761 639.032 680.265 641.595 681.601 C 642.995 682.331 645.177 682.600 646.755 682.634 C 648.195 682.665 650.181 682.486 651.502 681.911 C 653.378 681.095 655.369 679.071 656.765 677.577 C 658.706 675.499 660.821 672.300 662.209 669.818 C 665.016 664.801 667.670 657.549 669.555 652.118 C 676.127 633.179 682.102 607.046 686.721 587.538 C 694.465 554.827 703.367 510.871 709.228 477.770 C 712.098 461.559 715.227 439.825 717.523 423.523 C 719.440 409.911 722.167 391.772 723.395 378.081 C 723.850 373.006 724.347 366.219 724.361 361.124 C 724.377 355.178 723.834 347.254 723.307 341.332 C 722.981 337.661 722.561 332.749 721.827 329.138 C 720.898 324.577 719.328 318.514 717.472 314.245 C 715.324 309.302 711.749 302.926 708.246 298.831 C 704.991 295.026 699.871 290.465 695.451 288.111 C 690.408 285.425 682.726 284.047 677.123 282.925 C 672.716 282.041 666.739 281.377 662.254 281.080 C 657.612 280.772 651.399 280.988 646.747 280.948 C 646.747 280.948 646.747 280.948 646.747 280.948 C 643.189 399.070 634.888 674.648 634.887 674.687 "/>
      <path fill="#ff7900" fill-rule="evenodd" stroke="none" d="M 649.614 630.231 C 645.734 643.775 639.403 661.479 635.028 674.871 C 635.027 674.870 631.288 667.976 629.964 664.890 C 627.171 658.376 624.357 649.325 622.290 642.545 C 616.887 624.823 611.016 600.803 606.760 582.771 C 601.085 558.730 594.304 526.486 589.752 502.207 C 584.879 476.215 579.231 441.398 575.509 415.217 C 573.620 401.932 570.890 384.216 570.032 370.825 C 569.407 361.073 568.518 347.947 569.744 338.252 C 570.736 330.401 573.300 320.012 576.388 312.727 C 578.055 308.795 580.916 303.780 583.590 300.451 C 586.070 297.363 589.974 293.679 593.247 291.449 C 596.041 289.545 600.233 287.742 603.394 286.539 C 606.590 285.323 611.022 284.169 614.360 283.429 C 618.081 282.604 623.109 281.780 626.903 281.422 C 632.865 280.858 640.873 281.090 646.860 280.948 C 648.756 281.488 651.388 281.926 653.182 282.747 C 657.415 284.683 662.647 288.299 665.919 291.611 C 670.112 295.855 674.280 302.827 676.924 308.176 C 680.335 315.078 683.246 325.027 685.118 332.495 C 687.045 340.177 688.687 350.651 689.480 358.531 C 690.910 372.743 691.204 391.851 690.749 406.128 C 690.429 416.164 689.098 429.508 687.859 439.473 C 683.586 473.834 675.373 519.328 668.309 553.226 C 663.459 576.499 656.160 607.378 649.614 630.231 M 646.860 280.948 C 646.860 280.948 646.860 280.948 646.860 280.948 Z"/>
      <path fill="none" stroke="#ff7900" stroke-width="1" stroke-linecap="round" stroke-linejoin="round" d="M 635.028 674.871 C 635.028 674.871 635.028 674.871 635.028 674.871 C 639.403 661.479 645.734 643.775 649.614 630.231 C 656.160 607.378 663.459 576.499 668.309 553.226 C 675.373 519.328 683.586 473.834 687.859 439.473 C 689.098 429.508 690.429 416.164 690.749 406.128 C 691.204 391.851 690.910 372.743 689.480 358.531 C 688.687 350.651 687.045 340.177 685.118 332.495 C 683.246 325.027 680.335 315.078 676.924 308.176 C 674.280 302.827 670.112 295.855 665.919 291.611 C 662.647 288.299 657.415 284.683 653.182 282.747 C 651.388 281.926 648.756 281.488 646.860 280.948 C 646.860 280.948 646.860 280.948 646.860 280.948 C 640.873 281.090 632.865 280.858 626.903 281.422 C 623.109 281.780 618.081 282.604 614.360 283.429 C 611.022 284.169 606.590 285.323 603.394 286.539 C 600.233 287.742 596.041 289.545 593.247 291.449 C 589.974 293.679 586.070 297.363 583.590 300.451 C 580.916 303.780 578.055 308.795 576.388 312.727 C 573.300 320.012 570.736 330.401 569.744 338.252 C 568.518 347.947 569.407 361.073 570.032 370.825 C 570.890 384.216 573.620 401.932 575.509 415.217 C 579.231 441.398 584.879 476.215 589.752 502.207 C 594.304 526.486 601.085 558.730 606.760 582.771 C 611.016 600.803 616.887 624.823 622.290 642.545 C 624.357 649.325 627.171 658.376 629.964 664.890 C 631.288 667.976 635.027 674.870 635.028 674.871 "/>
      <path fill="#d44f02" fill-rule="evenodd" stroke="none" d="M 671.327 347.807 C 671.327 347.807 671.327 347.807 671.327 347.807 C 674.735 347.789 679.289 348.001 682.687 347.746 C 686.344 347.472 691.187 346.704 694.780 345.975 C 699.497 345.018 705.732 343.418 710.294 341.883 C 714.273 340.544 719.349 338.145 723.241 336.569 C 723.241 336.569 723.777 341.823 723.913 344.081 C 724.101 347.192 724.219 354.463 724.219 354.464 C 716.798 354.446 706.865 355.155 699.483 354.403 C 693.330 353.777 685.244 351.959 679.267 350.372 C 676.848 349.730 671.328 347.807 671.327 347.807 C 671.327 347.807 671.327 347.807 671.327 347.807 Z"/>
      <path fill="none" stroke="#d44f02" stroke-width="1" stroke-linecap="round" stroke-linejoin="round" d="M 724.219 354.464 C 724.219 354.464 724.219 354.464 724.219 354.464 C 724.219 354.463 724.101 347.192 723.913 344.081 C 723.777 341.823 723.241 336.569 723.241 336.569 C 719.349 338.145 714.273 340.544 710.294 341.883 C 705.732 343.418 699.497 345.018 694.780 345.975 C 691.187 346.704 686.344 347.472 682.687 347.746 C 679.289 348.001 674.735 347.789 671.327 347.807 C 671.327 347.807 671.327 347.807 671.327 347.807 C 671.328 347.807 676.848 349.730 679.267 350.372 C 685.244 351.959 693.330 353.777 699.483 354.403 C 706.865 355.155 716.798 354.446 724.219 354.464 M 671.327 347.807 C 671.327 347.807 671.327 347.807 671.327 347.807 "/>
      <path fill="#d44f02" fill-rule="evenodd" stroke="none" d="M 665.063 449.444 C 665.063 449.444 665.063 449.444 665.063 449.444 C 666.994 449.390 669.572 449.375 671.501 449.265 C 675.822 449.019 681.598 448.661 685.867 447.954 C 690.990 447.105 697.750 445.473 702.678 443.840 C 706.635 442.529 711.650 440.085 715.495 438.475 C 715.495 438.475 715.142 441.691 714.958 443.066 C 714.429 447.029 712.932 456.239 712.932 456.240 C 706.261 456.186 697.325 456.804 690.696 456.061 C 685.115 455.435 677.781 453.716 672.395 452.127 C 670.148 451.464 665.063 449.444 665.063 449.444 C 665.063 449.444 665.063 449.444 665.063 449.444 Z"/>
      <path fill="none" stroke="#d44f02" stroke-width="1" stroke-linecap="round" stroke-linejoin="round" d="M 712.932 456.240 C 712.932 456.240 712.932 456.240 712.932 456.240 C 712.932 456.239 714.429 447.029 714.958 443.066 C 715.142 441.691 715.495 438.475 715.495 438.475 C 711.650 440.085 706.635 442.529 702.678 443.840 C 697.750 445.473 690.990 447.105 685.867 447.954 C 681.598 448.661 675.822 449.019 671.501 449.265 C 669.572 449.375 666.994 449.390 665.063 449.444 C 665.063 449.444 665.063 449.444 665.063 449.444 C 665.063 449.444 670.148 451.464 672.395 452.127 C 677.781 453.716 685.115 455.435 690.696 456.061 C 697.325 456.804 706.261 456.186 712.932 456.240 M 665.063 449.444 C 665.063 449.444 665.063 449.444 665.063 449.444 "/>
      <path fill="#d44f02" fill-rule="evenodd" stroke="none" d="M 651.590 576.173 C 651.590 576.173 651.590 576.173 651.590 576.173 C 656.000 575.995 661.900 576.025 666.292 575.579 C 670.968 575.104 677.204 574.229 681.751 573.038 C 684.564 572.301 688.152 570.788 690.885 569.795 C 690.885 569.795 687.868 582.974 687.867 582.975 C 685.027 582.978 681.228 583.246 678.399 582.984 C 673.890 582.566 667.971 581.208 663.589 580.065 C 659.927 579.110 651.591 576.174 651.590 576.173 C 651.590 576.173 651.590 576.173 651.590 576.173 Z"/>
      <path fill="none" stroke="#d44f02" stroke-width="1" stroke-linecap="round" stroke-linejoin="round" d="M 687.867 582.975 C 687.867 582.975 687.867 582.975 687.867 582.975 C 687.868 582.974 690.885 569.795 690.885 569.795 C 688.152 570.788 684.564 572.301 681.751 573.038 C 677.204 574.229 670.968 575.104 666.292 575.579 C 661.900 576.025 656.000 575.995 651.590 576.173 C 651.590 576.173 651.590 576.173 651.590 576.173 C 651.591 576.174 659.927 579.110 663.589 580.065 C 667.971 581.208 673.890 582.566 678.399 582.984 C 681.228 583.246 685.027 582.978 687.867 582.975 M 651.590 576.173 C 651.590 576.173 651.590 576.173 651.590 576.173 "/>
      <path fill="#d44f02" fill-rule="evenodd" stroke="none" d="M 620.947 386.025 C 620.947 386.025 620.947 386.025 620.947 386.025 C 618.028 385.759 614.132 385.439 611.216 385.140 C 605.990 384.605 598.958 384.224 593.819 383.135 C 588.815 382.076 582.335 379.849 577.542 378.063 C 575.306 377.230 572.436 375.844 570.229 374.938 C 570.229 374.938 570.547 379.773 570.760 381.838 C 571.093 385.068 572.175 392.570 572.175 392.571 C 579.411 392.571 589.112 393.437 596.296 392.571 C 600.207 392.100 605.286 390.638 609.093 389.622 C 612.684 388.664 620.946 386.025 620.947 386.025 C 620.947 386.025 620.947 386.025 620.947 386.025 Z"/>
      <path fill="none" stroke="#d44f02" stroke-width="1" stroke-linecap="round" stroke-linejoin="round" d="M 572.175 392.571 C 572.175 392.571 572.175 392.571 572.175 392.571 C 572.175 392.570 571.093 385.068 570.760 381.838 C 570.547 379.773 570.229 374.938 570.229 374.938 C 572.436 375.844 575.306 377.230 577.542 378.063 C 582.335 379.849 588.815 382.076 593.819 383.135 C 598.958 384.224 605.990 384.605 611.216 385.140 C 614.132 385.439 618.028 385.759 620.947 386.025 C 620.947 386.025 620.947 386.025 620.947 386.025 C 620.946 386.025 612.684 388.664 609.093 389.622 C 605.286 390.638 600.207 392.100 596.296 392.571 C 589.112 393.437 579.411 392.571 572.175 392.571 M 620.947 386.025 C 620.947 386.025 620.947 386.025 620.947 386.025 "/>
      <path fill="#d44f02" fill-rule="evenodd" stroke="none" d="M 635.965 520.638 C 635.965 520.638 635.965 520.638 635.965 520.638 C 632.487 520.284 627.846 519.855 624.374 519.456 C 619.825 518.932 613.705 518.499 609.235 517.504 C 603.764 516.286 591.464 511.738 591.464 511.738 C 591.820 513.414 592.293 515.649 592.637 517.327 C 593.231 520.216 594.569 526.965 594.569 526.966 C 599.891 526.789 607.023 527.009 612.310 526.375 C 615.706 525.967 620.161 524.924 623.487 524.127 C 627.267 523.222 635.964 520.639 635.965 520.638 C 635.965 520.638 635.965 520.638 635.965 520.638 Z"/>
      <path fill="none" stroke="#d44f02" stroke-width="1" stroke-linecap="round" stroke-linejoin="round" d="M 594.569 526.966 C 594.569 526.966 594.569 526.966 594.569 526.966 C 594.569 526.965 593.231 520.216 592.637 517.327 C 592.293 515.649 591.820 513.414 591.464 511.738 C 591.464 511.738 603.764 516.286 609.235 517.504 C 613.705 518.499 619.825 518.932 624.374 519.456 C 627.846 519.855 632.487 520.284 635.965 520.638 C 635.965 520.638 635.965 520.638 635.965 520.638 C 635.964 520.639 627.267 523.222 623.487 524.127 C 620.161 524.924 615.706 525.967 612.310 526.375 C 607.023 527.009 599.891 526.789 594.569 526.966 M 635.965 520.638 C 635.965 520.638 635.965 520.638 635.965 520.638 "/>
    </g>
  </g>
</svg>