<svg enable-background="new 0 0 24 24" height="512" viewBox="0 0 24 24" width="512" xmlns="http://www.w3.org/2000/svg"><path d="m17.25 0h-3.5c-.414 0-.75.336-.75.75v2c0 .414.336.75.75.75h3.5c.414 0 .75-.336.75-.75v-2c0-.414-.336-.75-.75-.75z" fill="#2196f3"/><path d="m15.5 0h-1.75c-.414 0-.75.336-.75.75v2c0 .414.336.75.75.75h1.75z" fill="#1d83d4"/><path d="m19.25 24h-14.5c-.414 0-.75-.336-.75-.75v-20.5c0-.414.336-.75.75-.75h14.5c.414 0 .75.336.75.75v20.5c0 .414-.336.75-.75.75z" fill="#2196f3"/><g fill="#1976d2"><path d="m20.25 3.5h-16.5c-.414 0-.75-.336-.75-.75s.336-.75.75-.75h16.5c.414 0 .75.336.75.75s-.336.75-.75.75z"/><path d="m20.25 24h-16.5c-.414 0-.75-.336-.75-.75s.336-.75.75-.75h16.5c.414 0 .75.336.75.75s-.336.75-.75.75z"/><path d="m20.25 8.5h-16.5c-.414 0-.75-.336-.75-.75s.336-.75.75-.75h16.5c.414 0 .75.336.75.75s-.336.75-.75.75z"/><path d="m20.25 19h-16.5c-.414 0-.75-.336-.75-.75s.336-.75.75-.75h16.5c.414 0 .75.336.75.75s-.336.75-.75.75z"/></g><path d="m12 16.5c-1.443 0-3-.961-3-2.513 0-1.235 1.856-3.542 2.426-4.22.285-.339.863-.339 1.148 0 .57.678 2.426 2.985 2.426 4.22 0 1.552-1.557 2.513-3 2.513z" fill="#fff"/><path d="m12 19h-8v3.5h8zm0-10.5h-8v9h8v-1c-1.443 0-3-.961-3-2.513 0-1.235 1.856-3.542 2.426-4.22.142-.169.358-.254.574-.254zm0-5h-8v3.5h8z" fill="#1d83d4"/><g fill="#1667b7"><path d="m12 2h-8.25c-.414 0-.75.336-.75.75s.336.75.75.75h.25 8z"/><path d="m12 22.5h-8-.25c-.414 0-.75.336-.75.75s.336.75.75.75h8.25z"/><path d="m12 7h-8-.25c-.414 0-.75.336-.75.75s.336.75.75.75h.25 8z"/><path d="m12 17.5h-8-.25c-.414 0-.75.336-.75.75s.336.75.75.75h.25 8z"/></g><path d="m12 9.513c-.216 0-.432.085-.574.254-.57.678-2.426 2.985-2.426 4.22 0 1.552 1.557 2.513 3 2.513z" fill="#dedede"/></svg>