<?xml version="1.0" encoding="utf-8"?>
<svg viewBox="-2001.464 -680.094 2932.248 1708.73" width="2932.248" height="1708.73" xmlns="http://www.w3.org/2000/svg">
  <g transform="matrix(1, 0, 0, 1, 17.395729, -69.768517)">
    <g>
      <g>
        <path d="M485.82,158.475h-33.574c-9.233,0-16.787,7.554-16.787,16.787v8.393H66.148v-8.393c0-9.233-7.554-16.787-16.787-16.787 H15.787C6.554,158.475-1,166.03-1,175.262v151.082c0,9.233,7.554,16.787,16.787,16.787h33.574 c9.233,0,16.787-7.554,16.787-16.787v-8.393h369.311v8.393c0,9.233,7.554,16.787,16.787,16.787h33.574 c9.233,0,16.787-7.554,16.787-16.787V175.262C502.607,166.03,495.052,158.475,485.82,158.475z M49.361,326.344H15.787V175.262 h33.574v16.787v117.508V326.344z M66.148,301.164v-67.148h25.18c5.036,0,8.393-3.357,8.393-8.393 c0-5.036-3.357-8.393-8.393-8.393h-25.18v-16.787h369.311v16.787h-33.574c-5.036,0-8.393,3.357-8.393,8.393 c0,5.036,3.357,8.393,8.393,8.393h33.574v67.148H66.148z M485.82,326.344h-33.574v-16.787V192.049v-16.787h33.574V326.344z" style="fill: rgba(0, 0, 0, 0.48);"/>
        <path d="M225.623,217.229h-67.148c-5.036,0-8.393,3.357-8.393,8.393c0,5.036,3.357,8.393,8.393,8.393h67.148 c5.036,0,8.393-3.357,8.393-8.393C234.016,220.587,230.659,217.229,225.623,217.229z" style="fill: rgba(0, 0, 0, 0.48);"/>
        <path d="M124.902,217.229c-5.036,0-8.393,3.357-8.393,8.393c0,5.036,3.357,8.393,8.393,8.393s8.393-3.357,8.393-8.393 C133.295,220.587,129.938,217.229,124.902,217.229z" style="fill: rgba(0, 0, 0, 0.48);"/>
        <path d="M351.525,217.229H267.59c-5.036,0-8.393,3.357-8.393,8.393c0,5.036,3.357,8.393,8.393,8.393h83.934 c5.036,0,8.393-3.357,8.393-8.393C359.918,220.587,356.561,217.229,351.525,217.229z" style="fill: rgba(0, 0, 0, 0.48);"/>
      </g>
    </g>
  </g>
  <g transform="matrix(1, 0, 0, 1, 440.767853, 89.235306)">
    <g transform="matrix(0, -1, 1, 0, 0.000012, 501.605988)">
      <g>
        <path d="M485.82,11.59H334.738c-9.233,0-16.787,7.554-16.787,16.787v33.574c0,9.233,7.554,16.787,16.787,16.787h8.393v134.295 c0,64.63-52.879,117.508-117.508,117.508H66.148v-8.393c0-9.233-7.554-16.787-16.787-16.787H15.787 C6.554,305.361-1,312.915-1,322.147v151.082c0,9.233,7.554,16.787,16.787,16.787h33.574c9.233,0,16.787-7.554,16.787-16.787 v-8.393h159.475c139.331,0,251.803-113.311,251.803-251.803V78.738h8.393c9.233,0,16.787-7.554,16.787-16.787V28.377 C502.607,19.144,495.052,11.59,485.82,11.59z M49.361,473.229H15.787V322.147h33.574v16.787v117.508V473.229z M460.639,213.033 c0,129.259-105.757,235.016-235.016,235.016H66.148v-16.787h92.328c5.036,0,8.393-3.357,8.393-8.393s-3.357-8.393-8.393-8.393 H66.148v-67.148h159.475c73.862,0,134.295-60.433,134.295-134.295V78.738h100.721V213.033z M485.82,61.951h-16.787H351.525 h-16.787V28.377H485.82V61.951z" style="fill: rgba(0, 0, 0, 0.48);"/>
        <path d="M310.397,405.243c1.679,3.357,4.197,5.036,7.554,5.036c1.679,0,2.518-0.839,4.197-0.839 c18.466-9.233,36.092-21.823,52.039-36.092c4.197-3.357,4.197-8.393,0.839-11.751c-3.357-4.197-8.393-4.197-11.751-0.839 c-15.108,13.43-31.056,25.18-48.682,33.574C310.397,396.01,308.718,401.046,310.397,405.243z" style="fill: rgba(0, 0, 0, 0.48);"/>
        <path d="M386.777,355.721c2.518,0,5.036-0.839,7.554-2.518c15.108-18.466,27.698-39.449,36.092-61.272 c1.679-4.197-0.839-9.233-5.036-10.911s-9.233,0.839-10.911,5.036c-8.393,20.144-19.305,39.449-33.574,56.236 c-3.357,3.357-2.518,8.393,0.839,11.751C382.58,354.882,385.098,355.721,386.777,355.721z" style="fill: rgba(0, 0, 0, 0.48);"/>
        <path d="M435.459,137.492c5.036,0,8.393-3.357,8.393-8.393v-25.18c0-5.036-3.357-8.393-8.393-8.393 c-5.036,0-8.393,3.357-8.393,8.393v25.18C427.066,134.134,430.423,137.492,435.459,137.492z" style="fill: rgba(0, 0, 0, 0.48);"/>
        <path d="M435.459,171.066c5.036,0,8.393-3.357,8.393-8.393s-3.357-8.393-8.393-8.393c-5.036,0-8.393,3.357-8.393,8.393 S430.423,171.066,435.459,171.066z" style="fill: rgba(0, 0, 0, 0.48);"/>
      </g>
    </g>
  </g>
  <g transform="matrix(1, 0, 0, 1, -418.889252, -72.10228)">
    <g>
      <g>
        <path d="M485.82,158.475h-33.574c-9.233,0-16.787,7.554-16.787,16.787v8.393H66.148v-8.393c0-9.233-7.554-16.787-16.787-16.787 H15.787C6.554,158.475-1,166.03-1,175.262v151.082c0,9.233,7.554,16.787,16.787,16.787h33.574 c9.233,0,16.787-7.554,16.787-16.787v-8.393h369.311v8.393c0,9.233,7.554,16.787,16.787,16.787h33.574 c9.233,0,16.787-7.554,16.787-16.787V175.262C502.607,166.03,495.052,158.475,485.82,158.475z M49.361,326.344H15.787V175.262 h33.574v16.787v117.508V326.344z M66.148,301.164v-67.148h25.18c5.036,0,8.393-3.357,8.393-8.393 c0-5.036-3.357-8.393-8.393-8.393h-25.18v-16.787h369.311v16.787h-33.574c-5.036,0-8.393,3.357-8.393,8.393 c0,5.036,3.357,8.393,8.393,8.393h33.574v67.148H66.148z M485.82,326.344h-33.574v-16.787V192.049v-16.787h33.574V326.344z" style="fill: rgba(0, 0, 0, 0.48);"/>
        <path d="M225.623,217.229h-67.148c-5.036,0-8.393,3.357-8.393,8.393c0,5.036,3.357,8.393,8.393,8.393h67.148 c5.036,0,8.393-3.357,8.393-8.393C234.016,220.587,230.659,217.229,225.623,217.229z" style="fill: rgba(0, 0, 0, 0.48);"/>
        <path d="M124.902,217.229c-5.036,0-8.393,3.357-8.393,8.393c0,5.036,3.357,8.393,8.393,8.393s8.393-3.357,8.393-8.393 C133.295,220.587,129.938,217.229,124.902,217.229z" style="fill: rgba(0, 0, 0, 0.48);"/>
        <path d="M351.525,217.229H267.59c-5.036,0-8.393,3.357-8.393,8.393c0,5.036,3.357,8.393,8.393,8.393h83.934 c5.036,0,8.393-3.357,8.393-8.393C359.918,220.587,356.561,217.229,351.525,217.229z" style="fill: rgba(0, 0, 0, 0.48);"/>
      </g>
    </g>
  </g>
  <g transform="matrix(1, 0, 0, 1, -860.722412, -73.776192)">
    <g>
      <g>
        <path d="M485.82,158.475h-33.574c-9.233,0-16.787,7.554-16.787,16.787v8.393H66.148v-8.393c0-9.233-7.554-16.787-16.787-16.787 H15.787C6.554,158.475-1,166.03-1,175.262v151.082c0,9.233,7.554,16.787,16.787,16.787h33.574 c9.233,0,16.787-7.554,16.787-16.787v-8.393h369.311v8.393c0,9.233,7.554,16.787,16.787,16.787h33.574 c9.233,0,16.787-7.554,16.787-16.787V175.262C502.607,166.03,495.052,158.475,485.82,158.475z M49.361,326.344H15.787V175.262 h33.574v16.787v117.508V326.344z M66.148,301.164v-67.148h25.18c5.036,0,8.393-3.357,8.393-8.393 c0-5.036-3.357-8.393-8.393-8.393h-25.18v-16.787h369.311v16.787h-33.574c-5.036,0-8.393,3.357-8.393,8.393 c0,5.036,3.357,8.393,8.393,8.393h33.574v67.148H66.148z M485.82,326.344h-33.574v-16.787V192.049v-16.787h33.574V326.344z" style="fill: rgba(0, 0, 0, 0.48);"/>
        <path d="M225.623,217.229h-67.148c-5.036,0-8.393,3.357-8.393,8.393c0,5.036,3.357,8.393,8.393,8.393h67.148 c5.036,0,8.393-3.357,8.393-8.393C234.016,220.587,230.659,217.229,225.623,217.229z" style="fill: rgba(0, 0, 0, 0.48);"/>
        <path d="M124.902,217.229c-5.036,0-8.393,3.357-8.393,8.393c0,5.036,3.357,8.393,8.393,8.393s8.393-3.357,8.393-8.393 C133.295,220.587,129.938,217.229,124.902,217.229z" style="fill: rgba(0, 0, 0, 0.48);"/>
        <path d="M351.525,217.229H267.59c-5.036,0-8.393,3.357-8.393,8.393c0,5.036,3.357,8.393,8.393,8.393h83.934 c5.036,0,8.393-3.357,8.393-8.393C359.918,220.587,356.561,217.229,351.525,217.229z" style="fill: rgba(0, 0, 0, 0.48);"/>
      </g>
    </g>
  </g>
  <g transform="matrix(0, 1, -1, 0, 1085.656738, 526.028931)">
    <g>
      <g>
        <path d="M485.82,158.475h-33.574c-9.233,0-16.787,7.554-16.787,16.787v8.393H66.148v-8.393c0-9.233-7.554-16.787-16.787-16.787 H15.787C6.554,158.475-1,166.03-1,175.262v151.082c0,9.233,7.554,16.787,16.787,16.787h33.574 c9.233,0,16.787-7.554,16.787-16.787v-8.393h369.311v8.393c0,9.233,7.554,16.787,16.787,16.787h33.574 c9.233,0,16.787-7.554,16.787-16.787V175.262C502.607,166.03,495.052,158.475,485.82,158.475z M49.361,326.344H15.787V175.262 h33.574v16.787v117.508V326.344z M66.148,301.164v-67.148h25.18c5.036,0,8.393-3.357,8.393-8.393 c0-5.036-3.357-8.393-8.393-8.393h-25.18v-16.787h369.311v16.787h-33.574c-5.036,0-8.393,3.357-8.393,8.393 c0,5.036,3.357,8.393,8.393,8.393h33.574v67.148H66.148z M485.82,326.344h-33.574v-16.787V192.049v-16.787h33.574V326.344z" style="fill: rgba(0, 0, 0, 0.48);"/>
        <path d="M225.623,217.229h-67.148c-5.036,0-8.393,3.357-8.393,8.393c0,5.036,3.357,8.393,8.393,8.393h67.148 c5.036,0,8.393-3.357,8.393-8.393C234.016,220.587,230.659,217.229,225.623,217.229z" style="fill: rgba(0, 0, 0, 0.48);"/>
        <path d="M124.902,217.229c-5.036,0-8.393,3.357-8.393,8.393c0,5.036,3.357,8.393,8.393,8.393s8.393-3.357,8.393-8.393 C133.295,220.587,129.938,217.229,124.902,217.229z" style="fill: rgba(0, 0, 0, 0.48);"/>
        <path d="M351.525,217.229H267.59c-5.036,0-8.393,3.357-8.393,8.393c0,5.036,3.357,8.393,8.393,8.393h83.934 c5.036,0,8.393-3.357,8.393-8.393C359.918,220.587,356.561,217.229,351.525,217.229z" style="fill: rgba(0, 0, 0, 0.48);"/>
      </g>
    </g>
  </g>
  <g transform="matrix(0, 1, -1, 0, -787.729675, -234.643356)">
    <g>
      <g>
        <path d="M485.82,11.59H334.738c-9.233,0-16.787,7.554-16.787,16.787v33.574c0,9.233,7.554,16.787,16.787,16.787h8.393v134.295 c0,64.63-52.879,117.508-117.508,117.508H66.148v-8.393c0-9.233-7.554-16.787-16.787-16.787H15.787 C6.554,305.361-1,312.915-1,322.147v151.082c0,9.233,7.554,16.787,16.787,16.787h33.574c9.233,0,16.787-7.554,16.787-16.787 v-8.393h159.475c139.331,0,251.803-113.311,251.803-251.803V78.738h8.393c9.233,0,16.787-7.554,16.787-16.787V28.377 C502.607,19.144,495.052,11.59,485.82,11.59z M49.361,473.229H15.787V322.147h33.574v16.787v117.508V473.229z M460.639,213.033 c0,129.259-105.757,235.016-235.016,235.016H66.148v-16.787h92.328c5.036,0,8.393-3.357,8.393-8.393s-3.357-8.393-8.393-8.393 H66.148v-67.148h159.475c73.862,0,134.295-60.433,134.295-134.295V78.738h100.721V213.033z M485.82,61.951h-16.787H351.525 h-16.787V28.377H485.82V61.951z" style="fill: rgba(0, 0, 0, 0.48);"/>
        <path d="M310.397,405.243c1.679,3.357,4.197,5.036,7.554,5.036c1.679,0,2.518-0.839,4.197-0.839 c18.466-9.233,36.092-21.823,52.039-36.092c4.197-3.357,4.197-8.393,0.839-11.751c-3.357-4.197-8.393-4.197-11.751-0.839 c-15.108,13.43-31.056,25.18-48.682,33.574C310.397,396.01,308.718,401.046,310.397,405.243z" style="fill: rgba(0, 0, 0, 0.48);"/>
        <path d="M386.777,355.721c2.518,0,5.036-0.839,7.554-2.518c15.108-18.466,27.698-39.449,36.092-61.272 c1.679-4.197-0.839-9.233-5.036-10.911s-9.233,0.839-10.911,5.036c-8.393,20.144-19.305,39.449-33.574,56.236 c-3.357,3.357-2.518,8.393,0.839,11.751C382.58,354.882,385.098,355.721,386.777,355.721z" style="fill: rgba(0, 0, 0, 0.48);"/>
        <path d="M435.459,137.492c5.036,0,8.393-3.357,8.393-8.393v-25.18c0-5.036-3.357-8.393-8.393-8.393 c-5.036,0-8.393,3.357-8.393,8.393v25.18C427.066,134.134,430.423,137.492,435.459,137.492z" style="fill: rgba(0, 0, 0, 0.48);"/>
        <path d="M435.459,171.066c5.036,0,8.393-3.357,8.393-8.393s-3.357-8.393-8.393-8.393c-5.036,0-8.393,3.357-8.393,8.393 S430.423,171.066,435.459,171.066z" style="fill: rgba(0, 0, 0, 0.48);"/>
      </g>
    </g>
  </g>
  <g transform="matrix(0.017452, -0.999848, 0.999848, 0.017452, -1587.103027, -177.766571)">
    <g>
      <g>
        <path d="M485.82,11.59H334.738c-9.233,0-16.787,7.554-16.787,16.787v33.574c0,9.233,7.554,16.787,16.787,16.787h8.393v134.295 c0,64.63-52.879,117.508-117.508,117.508H66.148v-8.393c0-9.233-7.554-16.787-16.787-16.787H15.787 C6.554,305.361-1,312.915-1,322.147v151.082c0,9.233,7.554,16.787,16.787,16.787h33.574c9.233,0,16.787-7.554,16.787-16.787 v-8.393h159.475c139.331,0,251.803-113.311,251.803-251.803V78.738h8.393c9.233,0,16.787-7.554,16.787-16.787V28.377 C502.607,19.144,495.052,11.59,485.82,11.59z M49.361,473.229H15.787V322.147h33.574v16.787v117.508V473.229z M460.639,213.033 c0,129.259-105.757,235.016-235.016,235.016H66.148v-16.787h92.328c5.036,0,8.393-3.357,8.393-8.393s-3.357-8.393-8.393-8.393 H66.148v-67.148h159.475c73.862,0,134.295-60.433,134.295-134.295V78.738h100.721V213.033z M485.82,61.951h-16.787H351.525 h-16.787V28.377H485.82V61.951z" style="fill: rgba(0, 0, 0, 0.48);"/>
        <path d="M310.397,405.243c1.679,3.357,4.197,5.036,7.554,5.036c1.679,0,2.518-0.839,4.197-0.839 c18.466-9.233,36.092-21.823,52.039-36.092c4.197-3.357,4.197-8.393,0.839-11.751c-3.357-4.197-8.393-4.197-11.751-0.839 c-15.108,13.43-31.056,25.18-48.682,33.574C310.397,396.01,308.718,401.046,310.397,405.243z" style="fill: rgba(0, 0, 0, 0.48);"/>
        <path d="M386.777,355.721c2.518,0,5.036-0.839,7.554-2.518c15.108-18.466,27.698-39.449,36.092-61.272 c1.679-4.197-0.839-9.233-5.036-10.911s-9.233,0.839-10.911,5.036c-8.393,20.144-19.305,39.449-33.574,56.236 c-3.357,3.357-2.518,8.393,0.839,11.751C382.58,354.882,385.098,355.721,386.777,355.721z" style="fill: rgba(0, 0, 0, 0.48);"/>
        <path d="M435.459,137.492c5.036,0,8.393-3.357,8.393-8.393v-25.18c0-5.036-3.357-8.393-8.393-8.393 c-5.036,0-8.393,3.357-8.393,8.393v25.18C427.066,134.134,430.423,137.492,435.459,137.492z" style="fill: rgba(0, 0, 0, 0.48);"/>
        <path d="M435.459,171.066c5.036,0,8.393-3.357,8.393-8.393s-3.357-8.393-8.393-8.393c-5.036,0-8.393,3.357-8.393,8.393 S430.423,171.066,435.459,171.066z" style="fill: rgba(0, 0, 0, 0.48);"/>
      </g>
    </g>
  </g>
  <g transform="matrix(1, 0, 0, 1, -2000.464111, -838.126831)">
    <g>
      <g>
        <path d="M485.82,158.475h-33.574c-9.233,0-16.787,7.554-16.787,16.787v8.393H66.148v-8.393c0-9.233-7.554-16.787-16.787-16.787 H15.787C6.554,158.475-1,166.03-1,175.262v151.082c0,9.233,7.554,16.787,16.787,16.787h33.574 c9.233,0,16.787-7.554,16.787-16.787v-8.393h369.311v8.393c0,9.233,7.554,16.787,16.787,16.787h33.574 c9.233,0,16.787-7.554,16.787-16.787V175.262C502.607,166.03,495.052,158.475,485.82,158.475z M49.361,326.344H15.787V175.262 h33.574v16.787v117.508V326.344z M66.148,301.164v-67.148h25.18c5.036,0,8.393-3.357,8.393-8.393 c0-5.036-3.357-8.393-8.393-8.393h-25.18v-16.787h369.311v16.787h-33.574c-5.036,0-8.393,3.357-8.393,8.393 c0,5.036,3.357,8.393,8.393,8.393h33.574v67.148H66.148z M485.82,326.344h-33.574v-16.787V192.049v-16.787h33.574V326.344z" style="fill: rgba(0, 0, 0, 0.48);"/>
        <path d="M225.623,217.229h-67.148c-5.036,0-8.393,3.357-8.393,8.393c0,5.036,3.357,8.393,8.393,8.393h67.148 c5.036,0,8.393-3.357,8.393-8.393C234.016,220.587,230.659,217.229,225.623,217.229z" style="fill: rgba(0, 0, 0, 0.48);"/>
        <path d="M124.902,217.229c-5.036,0-8.393,3.357-8.393,8.393c0,5.036,3.357,8.393,8.393,8.393s8.393-3.357,8.393-8.393 C133.295,220.587,129.938,217.229,124.902,217.229z" style="fill: rgba(0, 0, 0, 0.48);"/>
        <path d="M351.525,217.229H267.59c-5.036,0-8.393,3.357-8.393,8.393c0,5.036,3.357,8.393,8.393,8.393h83.934 c5.036,0,8.393-3.357,8.393-8.393C359.918,220.587,356.561,217.229,351.525,217.229z" style="fill: rgba(0, 0, 0, 0.48);"/>
      </g>
    </g>
  </g>
</svg>