<?xml version="1.0" encoding="utf-8"?>
<svg viewBox="196.074 198.86 12.028 11.608" width="12.028" height="11.608" xmlns="http://www.w3.org/2000/svg">
  <g transform="matrix(0.041528, 0, 0, 0.041528, 187.306137, 190.73613)" id="g6738">
    <path d="M 330.95 198.995 C 355.625 219.524 337.066 252.239 316.136 285.136 C 278.47 259.712 236.721 237.81 213.196 231.647 C 274.307 254.886 255.237 357.827 278.719 417.607 C 281.037 427.189 286.116 435.195 293.039 441.731 C 310.297 461.834 325.191 470.182 347.547 466.755 C 374.918 472.265 392.12 462.729 412.69 438.135 C 459.788 381.828 422.028 239.795 498.079 210.875 C 471.284 217.895 422.816 243.611 380.369 272.891 C 365.86 241.418 347.606 210.208 330.951 198.999 Z" fill="#f55" fill-rule="evenodd" id="path4533"/>
  </g>
  <g transform="matrix(0.024428, 0, 0, 0.014826, 198.543686, 206.259918)" style="" id="g7154">
    <path d="m43.112 43.328c2.842 2.085 5.474 4.436 8.126 6.744 15.573 13.434 32.316 25.55 50.252 35.628 20.232 12.607 45.939 13.109 68.322 6.531 19.463-6.086 34.625-20.312 50.789-32.049-14.326 28.926-23.02 60.585-40.631 87.855-6.778 10.031-14.158 20.498-25.271 26.07-17.268 9.188-40.599 7.525-54.812-6.529-11.002-11.861-19.619-25.771-26.643-40.295-12.876-26.902-20.567-55.808-30.132-83.955z" fill="#fff" id="path37"/>
    <path d="m211.124,23.163c7.269-5.083 15.964-8.417 24.882-8.528 7.524.257 13.988,4.771 18.684,10.39 3.445,4.548 7.111,9.018 9.271,14.358-1.895-.211-3.688-.825-5.451-1.527-1.895-5.396-5.975-9.598-9.106-14.279-4.237-5.876-12.206-6.086-18.75-5.396-4.046,2.007-8.751,2.552-12.25,5.641-2.131,2.115-5.008.065-7.28-.659z" id="path1288"/>
    <path d="m235.37,24.333c5.384,2.954 4.515,9.933 2.908,14.882-7.233,31.87-19.698,62.225-32.796,92.042-3.713,7.48-6.354,15.484-10.893,22.541-5.65,9.34-10.945,19.174-19.019,26.697-6.343,7.012-15.093,12.129-24.502,13.41-7.437.367-14.938,2.742-22.339.523-12.574-1.828-23.042-9.688-32.338-17.824-3.935-3.555-6.745-8.094-10.401-11.904-22.515-30.598-33.752-67.486-44.89-103.347-3.032-8.816-4.871-18.091-8.973-26.508 1.928-1.951 4.069-3.789 6.699-4.669 5.841.958 9.888,5.718 13.121,10.289 4.526,2.819 7.491,7.446 11.938,10.354 11.426,9.343 24.046,17.113 36.798,24.513 4.77,2.709 9.174,6.242 14.514,7.792 5.573,1.883 11.359,3.187 17.167,3.991 6.733-.201 13.601.735 20.198-.97 10.389-1.228 20.066-5.384 29.617-9.408 7.403-4.224 14.795-8.751 20.758-14.937 3.588-2.296 6.6-5.295 8.871-8.896 7.805-7.558 14.07-16.442 21.08-24.69 .966-1.206 1.659-2.588 2.482-3.881m-192.258,18.995c9.565,28.147 17.256,57.053 30.131,83.951 7.023,14.525 15.64,28.438 26.642,40.299 14.213,14.057 37.544,15.717 54.812,6.529 11.113-5.572 18.494-16.039 25.271-26.07 17.612-27.27 26.308-58.927 40.631-87.855-16.164,11.738-31.325,25.962-50.789,32.048-22.383,6.576-48.088,6.075-68.321-6.533-17.937-10.076-34.681-22.194-50.253-35.627-2.651-2.306-5.282-4.657-8.124-6.742z" id="path8606"/>
    <path d="m256.227,37.084c.746.76.746.76 0,0z" id="path7556"/>
    <path d="m56.913,27.834c-3.501-3.089-8.205-3.635-12.251-5.642-6.543-.691-14.514-.479-18.75,5.395-3.132,4.682-7.212,8.886-9.107,14.281-1.761.703-3.555,1.316-5.451,1.526 2.163-5.338 5.829-9.81 9.274-14.356 4.694-5.619 11.158-10.134 18.683-10.39 8.918.112 17.614,3.445 24.881,8.526-2.273.726-5.149,2.778-7.279.66z" id="path1251"/>
  </g>
  <g transform="matrix(0.014686, 0, 0, 0.013992, 198.827576, 200.879135)" style="" id="g3349">
    <g stroke="#000" id="g9012">
      <g stroke-width="5" id="g7977">
        <path transform="rotate(35.812 101.1 162.36)" d="m129.79 125.28c-87 0-49 112-49.79 60.719s49.79-60.719 49.79-60.719z" id="path4261"/>
        <path transform="rotate(22.312 311.47 153.29)" d="m356.95 166.14c-50.584-70.783-119.61 25.254-78.35-5.205 41.263-30.459 78.35 5.205 78.35 5.205z" id="path3837"/>
      </g>
      <g stroke-dasharray="null" stroke-linecap="null" stroke-linejoin="null" id="g3745">
        <g fill="#fff" stroke-width="5" id="g7905">
          <ellipse transform="rotate(-9.9506 136.79 270.28)" cx="136.79" cy="270.28" rx="62" ry="93" id="ellipse2855"/>
          <ellipse cx="277.79" cy="261.28" rx="62" ry="93" id="ellipse7040"/>
        </g>
        <ellipse transform="rotate(-17.176 137.79 284.28)" cx="137.79" cy="284.28" rx="23" ry="36" id="ellipse5852"/>
        <circle cx="138.79" cy="288.28" r="12.627" fill="#fff" stroke-width="5" id="circle5960"/>
        <ellipse transform="rotate(18.778 262.79 283.28)" cx="262.79" cy="283.28" rx="23" ry="36" id="ellipse6732"/>
        <circle cx="259.79" cy="288.28" r="12.627" fill="#fff" stroke-width="5" id="circle6075"/>
      </g>
    </g>
  </g>
</svg>